<?xml version="1.0" encoding="UTF-8"?>
<svg width="40" height="40" version="1.1" viewBox="0 0 40 40" xmlns="http://www.w3.org/2000/svg">
 <rect x="2" y="2" width="36" height="36" rx="0" color="#000000" fill="#1a1a2e" stroke-width="1"/>
 <g transform="translate(2 8.44)" stroke-width=".9">
  <path d="m5.22 18q12.8-15.9 25.6 0-12.8 15.9-25.6 0z" color="#000000" fill="#fff"/>
  <circle cx="18" cy="18" r="6.5" color="#000000" fill="#4a9eff"/>
  <circle cx="18" cy="18" r="3.5" color="#000000" fill="#1a1a2e"/>
  <circle cx="20" cy="16" r="1" color="#000000" fill="#fff" opacity=".85"/>
 </g>
 <path d="m7.22 26.4q12.8-15.9 25.6 0" color="#000000" fill="none" opacity=".6" stroke="#fff" stroke-linecap="round" stroke-width="1px"/>
 <path d="m7.22 26.4q12.8 15.9 25.6 0" color="#000000" fill="none" opacity=".6" stroke="#fff" stroke-linecap="round" stroke-width="1px"/>
 <path d="m7.08 12.1q1.83-7.32 9.15-7.32c7.32 1.2e-6 8.23 5.49 11.9 6.4q3.66 0.915 6.4-2.74-1.83 7.32-9.15 7.32c-7.32 0-8.23-5.49-11.9-6.4q-3.66-0.915-6.4 2.74z" fill="#75bea6" stroke-width="1.31"/>
</svg>
